<?xml version="1.0" encoding="UTF-8" standalone="no"?>
<svg
   xmlns:dc="http://purl.org/dc/elements/1.1/"
   xmlns:cc="http://creativecommons.org/ns#"
   xmlns:rdf="http://www.w3.org/1999/02/22-rdf-syntax-ns#"
   xmlns:svg="http://www.w3.org/2000/svg"
   xmlns="http://www.w3.org/2000/svg"
   xmlns:sodipodi="http://sodipodi.sourceforge.net/DTD/sodipodi-0.dtd"
   xmlns:inkscape="http://www.inkscape.org/namespaces/inkscape"
   version="1.1"
   width="76"
   height="76"
   viewBox="0 0 76.00 76.00"
   enable-background="new 0 0 76.00 76.00"
   xml:space="preserve"
   id="svg2"
   inkscape:version="0.48.2 r9819"
   sodipodi:docname="MyBase.ArrowRight"><metadata
   id="metadata10"><rdf:RDF><cc:Work
       rdf:about=""><dc:format>image/svg+xml</dc:format><dc:type
         rdf:resource="http://purl.org/dc/dcmitype/StillImage" /><dc:title></dc:title></cc:Work></rdf:RDF></metadata><defs
   id="defs8" /><sodipodi:namedview
   pagecolor="#ffffff"
   bordercolor="#666666"
   borderopacity="1"
   objecttolerance="10"
   gridtolerance="10"
   guidetolerance="10"
   inkscape:pageopacity="0"
   inkscape:pageshadow="2"
   inkscape:window-width="1920"
   inkscape:window-height="1058"
   id="namedview6"
   showgrid="false"
   inkscape:zoom="9.3618576"
   inkscape:cx="31.466029"
   inkscape:cy="38.425666"
   inkscape:window-x="-8"
   inkscape:window-y="-8"
   inkscape:window-maximized="1"
   inkscape:current-layer="layer3" />
	
<g
   inkscape:groupmode="layer"
   id="layer2"
   inkscape:label="White Background Circle"
   style="display:inline"><path
     sodipodi:type="arc"
     style="fill:#ffffff;fill-opacity:1;fill-rule:nonzero;stroke:none"
     id="path3802"
     sodipodi:cx="55.594135"
     sodipodi:cy="42.152027"
     sodipodi:rx="35.470821"
     sodipodi:ry="36.44453"
     d="m 91.064957,42.152027 a 35.470821,36.44453 0 1 1 -70.941643,0 35.470821,36.44453 0 1 1 70.941643,0 z"
     transform="matrix(-1,0,0,0.98854962,93.52672,-3.6440138)" /></g><g
   inkscape:groupmode="layer"
   id="layer1"
   inkscape:label="Black Circle Frame Torus"
   style="display:inline"><path
     d="m 37.999962,0.791664 c -20.5496,0 -37.2083,16.658736 -37.2083,37.208336 0,20.5496 16.6587,37.2083 37.2083,37.2083 C 58.549562,75.2083 75.2083,58.5496 75.2083,38 75.2083,17.4504 58.549562,0.791664 37.999962,0.791664 z m 0,4.749996 c 17.9262,0 32.45833,14.53214 32.45833,32.45834 0,17.9262 -14.53213,32.4583 -32.45833,32.4583 -17.9262,0 -32.4583,-14.5321 -32.4583,-32.4583 0,-17.9262 14.5321,-32.45834 32.4583,-32.45834 z"
     id="path4"
     inkscape:connector-curvature="0"
     style="fill:#000000;fill-opacity:1;stroke-width:0.2;stroke-linejoin:round" /></g><g
   inkscape:groupmode="layer"
   id="layer3"
   inkscape:label="Arrow"
   style="display:inline"><path
     style="fill:#000000;fill-opacity:1;stroke-width:0.2;stroke-linejoin:round"
     inkscape:connector-curvature="0"
     d="m 45.867801,36.547105 -15.8334,15.8333 10.6875,0 16.625004,-15.8333 -16.625004,-15.8333 -10.6875,0 15.8334,15.8333 z"
     id="path4-1" /></g></svg>