<?xml version="1.0" encoding="UTF-8" standalone="no"?>
<svg
   xmlns:dc="http://purl.org/dc/elements/1.1/"
   xmlns:cc="http://creativecommons.org/ns#"
   xmlns:rdf="http://www.w3.org/1999/02/22-rdf-syntax-ns#"
   xmlns:svg="http://www.w3.org/2000/svg"
   xmlns="http://www.w3.org/2000/svg"
   xmlns:sodipodi="http://sodipodi.sourceforge.net/DTD/sodipodi-0.dtd"
   xmlns:inkscape="http://www.inkscape.org/namespaces/inkscape"
   version="1.1"
   width="76"
   height="76"
   viewBox="0 0 76.00 76.00"
   enable-background="new 0 0 76.00 76.00"
   xml:space="preserve"
   id="svg2"
   inkscape:version="0.48.2 r9819"
   sodipodi:docname="appbar.base.svg"><metadata
   id="metadata10"><rdf:RDF><cc:Work
       rdf:about=""><dc:format>image/svg+xml</dc:format><dc:type
         rdf:resource="http://purl.org/dc/dcmitype/StillImage" /><dc:title></dc:title></cc:Work></rdf:RDF></metadata><defs
   id="defs8" /><sodipodi:namedview
   pagecolor="#ffffff"
   bordercolor="#666666"
   borderopacity="1"
   objecttolerance="10"
   gridtolerance="10"
   guidetolerance="10"
   inkscape:pageopacity="0"
   inkscape:pageshadow="2"
   inkscape:window-width="1920"
   inkscape:window-height="1058"
   id="namedview6"
   showgrid="false"
   inkscape:zoom="10.783512"
   inkscape:cx="33.582425"
   inkscape:cy="38"
   inkscape:window-x="-8"
   inkscape:window-y="-8"
   inkscape:window-maximized="1"
   inkscape:current-layer="layer1" />
	
<g
   inkscape:groupmode="layer"
   id="layer2"
   inkscape:label="White Background Circle"
   style="display:inline"
   sodipodi:insensitive="true"><path
     sodipodi:type="arc"
     style="fill:#ffffff;fill-opacity:1;fill-rule:nonzero;stroke:none"
     id="path3802"
     sodipodi:cx="55.594135"
     sodipodi:cy="42.152027"
     sodipodi:rx="35.470821"
     sodipodi:ry="36.44453"
     d="m 91.064957,42.152027 a 35.470821,36.44453 0 1 1 -70.941643,0 35.470821,36.44453 0 1 1 70.941643,0 z"
     transform="matrix(1,0,0,0.98854962,-17.526758,-3.6440138)" /></g><g
   inkscape:groupmode="layer"
   id="layer1"
   inkscape:label="Black Circle Frame Torus"
   style="display:inline"
   sodipodi:insensitive="true"><path
     d="M 38,0.791664 C 58.5496,0.791664 75.2083,17.4504 75.2083,38 75.2083,58.5496 58.5496,75.2083 38,75.2083 17.4504,75.2083 0.791662,58.5496 0.791662,38 0.791662,17.4504 17.4504,0.791664 38,0.791664 z M 38,5.54166 C 20.0738,5.54166 5.54167,20.0738 5.54167,38 5.54167,55.9262 20.0738,70.4583 38,70.4583 55.9262,70.4583 70.4583,55.9262 70.4583,38 70.4583,20.0738 55.9262,5.54166 38,5.54166 z"
     id="path4"
     inkscape:connector-curvature="0"
     style="fill:#000000;fill-opacity:1;stroke-width:0.2;stroke-linejoin:round" /></g></svg>