<?xml version="1.0" encoding="UTF-8" standalone="no"?>
<svg
   xmlns:dc="http://purl.org/dc/elements/1.1/"
   xmlns:cc="http://creativecommons.org/ns#"
   xmlns:rdf="http://www.w3.org/1999/02/22-rdf-syntax-ns#"
   xmlns:svg="http://www.w3.org/2000/svg"
   xmlns="http://www.w3.org/2000/svg"
   xmlns:sodipodi="http://sodipodi.sourceforge.net/DTD/sodipodi-0.dtd"
   xmlns:inkscape="http://www.inkscape.org/namespaces/inkscape"
   version="1.1"
   width="76"
   height="76"
   viewBox="0 0 76.00 76.00"
   enable-background="new 0 0 76.00 76.00"
   xml:space="preserve"
   id="svg2"
   inkscape:version="0.48.2 r9819"
   sodipodi:docname="MyVideos.svg"><metadata
   id="metadata10"><rdf:RDF><cc:Work
       rdf:about=""><dc:format>image/svg+xml</dc:format><dc:type
         rdf:resource="http://purl.org/dc/dcmitype/StillImage" /></cc:Work></rdf:RDF></metadata><defs
   id="defs8" /><sodipodi:namedview
   pagecolor="#ffffff"
   bordercolor="#666666"
   borderopacity="1"
   objecttolerance="10"
   gridtolerance="10"
   guidetolerance="10"
   inkscape:pageopacity="0"
   inkscape:pageshadow="2"
   inkscape:window-width="640"
   inkscape:window-height="480"
   id="namedview6"
   showgrid="false"
   inkscape:zoom="3.7724095"
   inkscape:cx="38"
   inkscape:cy="38"
   inkscape:window-x="0"
   inkscape:window-y="0"
   inkscape:window-maximized="0"
   inkscape:current-layer="svg2" />
	<path
   d="m 9.7221102,34.107783 4.5804888,0 0,12.102236 -4.5804888,0 0,-12.102236 z m 5.7255018,-1.210117 38.36114,0 0,6.051042 1.71781,0 9.160832,-9.681697 0,31.465631 -9.160832,-9.681697 -1.71781,0 0,9.681697 -38.36114,0 0,-27.834976 z m 9.160977,-18.153278 c 4.426875,0 8.015674,3.79285 8.015674,8.471428 0,4.67873 -3.588799,8.471581 -8.015674,8.471581 -4.42702,0 -8.015818,-3.792851 -8.015818,-8.471581 0,-4.678578 3.588798,-8.471428 8.015818,-8.471428 z m 18.321665,0 c 4.42702,0 8.015819,3.79285 8.015819,8.471428 0,4.67873 -3.588799,8.471581 -8.015819,8.471581 -4.42702,0 -8.015674,-3.792851 -8.015674,-8.471581 0,-4.678578 3.588654,-8.471428 8.015674,-8.471428 z"
   id="path4"
   inkscape:connector-curvature="0"
   style="fill:#000000;fill-opacity:1;stroke-width:0.2;stroke-linejoin:round" />
</svg>