<?xml version="1.0" encoding="UTF-8" standalone="no"?>
<svg
   xmlns:dc="http://purl.org/dc/elements/1.1/"
   xmlns:cc="http://creativecommons.org/ns#"
   xmlns:rdf="http://www.w3.org/1999/02/22-rdf-syntax-ns#"
   xmlns:svg="http://www.w3.org/2000/svg"
   xmlns="http://www.w3.org/2000/svg"
   xmlns:sodipodi="http://sodipodi.sourceforge.net/DTD/sodipodi-0.dtd"
   xmlns:inkscape="http://www.inkscape.org/namespaces/inkscape"
   version="1.1"
   width="76"
   height="76"
   viewBox="0 0 76.00 76.00"
   enable-background="new 0 0 76.00 76.00"
   xml:space="preserve"
   id="svg2"
   inkscape:version="0.48.2 r9819"
   sodipodi:docname="delete.svg"><metadata
   id="metadata10"><rdf:RDF><cc:Work
       rdf:about=""><dc:format>image/svg+xml</dc:format><dc:type
         rdf:resource="http://purl.org/dc/dcmitype/StillImage" /></cc:Work></rdf:RDF></metadata><defs
   id="defs8" /><sodipodi:namedview
   pagecolor="#ffffff"
   bordercolor="#666666"
   borderopacity="1"
   objecttolerance="10"
   gridtolerance="10"
   guidetolerance="10"
   inkscape:pageopacity="0"
   inkscape:pageshadow="2"
   inkscape:window-width="1030"
   inkscape:window-height="675"
   id="namedview6"
   showgrid="false"
   inkscape:zoom="3.1052632"
   inkscape:cx="38"
   inkscape:cy="38"
   inkscape:window-x="440"
   inkscape:window-y="226"
   inkscape:window-maximized="0"
   inkscape:current-layer="svg2" />
	<path
   d="m 21.563324,60.192304 c 5.220184,4.37761 14.262774,-9.021886 17.096685,-10.780872 2.83391,1.758986 6.370789,4.556556 11.880747,6.126368 4.29835,3.18381 6.103372,-2.623572 6.103372,-2.623572 0,0 -5.517756,-2.22487 -11.216711,-8.581662 7.479799,-8.581742 17.809076,-20.34196 16.384382,-30.51286 -9.218445,9.174303 -15.487105,16.748021 -22.862016,23.330827 -7.085136,-3.738388 -7.848084,-10.019188 -23.15179,-22.555076 -1.424694,10.1709 8.614809,21.155367 16.094608,29.737109 -5.698955,6.356792 -14.404228,11.167497 -14.404228,11.167497 0,0 1.225474,3.738715 4.074951,4.692241 z"
   id="path4"
   inkscape:connector-curvature="0"
   style="fill:#d40000;fill-opacity:1;stroke-width:0.2;stroke-linejoin:round"
   sodipodi:nodetypes="ccccccccccc" />
</svg>