<?xml version="1.0" encoding="UTF-8" standalone="no"?>
<svg
   xmlns:dc="http://purl.org/dc/elements/1.1/"
   xmlns:cc="http://creativecommons.org/ns#"
   xmlns:rdf="http://www.w3.org/1999/02/22-rdf-syntax-ns#"
   xmlns:svg="http://www.w3.org/2000/svg"
   xmlns="http://www.w3.org/2000/svg"
   xmlns:sodipodi="http://sodipodi.sourceforge.net/DTD/sodipodi-0.dtd"
   xmlns:inkscape="http://www.inkscape.org/namespaces/inkscape"
   version="1.1"
   width="76"
   height="76"
   viewBox="0 0 76.00 76.00"
   enable-background="new 0 0 76.00 76.00"
   xml:space="preserve"
   id="svg2"
   inkscape:version="0.48.2 r9819"
   sodipodi:docname="appbar.monitor.svg"
   inkscape:export-filename="C:\Users\Internet\Desktop\Edi\Tools\BuiltIn\Output\Images\MetroLight\appbar.monitor.png"
   inkscape:export-xdpi="18.947369"
   inkscape:export-ydpi="18.947369"><metadata
   id="metadata10"><rdf:RDF><cc:Work
       rdf:about=""><dc:format>image/svg+xml</dc:format><dc:type
         rdf:resource="http://purl.org/dc/dcmitype/StillImage" /><dc:title></dc:title></cc:Work></rdf:RDF></metadata><defs
   id="defs8" /><sodipodi:namedview
   pagecolor="#ffffff"
   bordercolor="#666666"
   borderopacity="1"
   objecttolerance="10"
   gridtolerance="10"
   guidetolerance="10"
   inkscape:pageopacity="0"
   inkscape:pageshadow="2"
   inkscape:window-width="640"
   inkscape:window-height="480"
   id="namedview6"
   showgrid="false"
   inkscape:zoom="3.7724095"
   inkscape:cx="38"
   inkscape:cy="38"
   inkscape:window-x="350"
   inkscape:window-y="146"
   inkscape:window-maximized="0"
   inkscape:current-layer="svg2" />
	<path
   d="m 9.7810701,9.2159065 57.2328489,0 c 1.756104,0 3.17962,1.5586015 3.17962,3.4813535 l 1.6e-4,36.553853 c 0,1.92275 -1.423517,3.481351 -3.179621,3.481351 l -23.846994,0 0,8.703382 6.359241,0 c 1.756104,0 3.17962,1.558601 3.17962,3.481352 l 0,3.481353 -28.616583,0 0,-3.481353 c 0,-1.922751 1.423676,-3.481352 3.17962,-3.481352 l 6.35924,0 0,-8.703382 -23.8471519,0 c -1.7561045,0 -3.1796205,-1.558601 -3.1796205,-3.481351 l 0,-36.553853 c 0,-1.922752 1.423516,-3.4813535 3.1796205,-3.4813535 z m 1.5898099,5.2220285 0,33.0725 54.053388,0 -1.59e-4,-33.0725 -54.053229,0 z"
   id="path4"
   inkscape:connector-curvature="0"
   style="fill:#000000;fill-opacity:1;stroke-width:0.2;stroke-linejoin:round" />
</svg>