<?xml version="1.0" encoding="UTF-8" standalone="no"?>
<!-- Created with Inkscape (http://www.inkscape.org/) -->

<svg
   xmlns:dc="http://purl.org/dc/elements/1.1/"
   xmlns:cc="http://creativecommons.org/ns#"
   xmlns:rdf="http://www.w3.org/1999/02/22-rdf-syntax-ns#"
   xmlns:svg="http://www.w3.org/2000/svg"
   xmlns="http://www.w3.org/2000/svg"
   xmlns:sodipodi="http://sodipodi.sourceforge.net/DTD/sodipodi-0.dtd"
   xmlns:inkscape="http://www.inkscape.org/namespaces/inkscape"
   height="76"
   id="svg18453"
   inkscape:version="0.48.2 r9819"
   sodipodi:docname="scissors.svg"
   sodipodi:version="0.32"
   width="76"
   version="1.1">
  <metadata
     id="metadata3">
    <rdf:RDF>
      <cc:Work
         rdf:about="">
        <dc:title />
        <dc:description>Generic scissor outline</dc:description>
        <dc:subject>
          <rdf:Bag>
            <rdf:li>hash</rdf:li>
            <rdf:li />
            <rdf:li>education</rdf:li>
          </rdf:Bag>
        </dc:subject>
        <dc:publisher>
          <cc:Agent
             rdf:about="http://www.openclipart.org">
            <dc:title>Jon Phillips</dc:title>
          </cc:Agent>
        </dc:publisher>
        <dc:creator>
          <cc:Agent>
            <dc:title>Jon Phillips</dc:title>
          </cc:Agent>
        </dc:creator>
        <dc:rights>
          <cc:Agent>
            <dc:title>Jon Phillips</dc:title>
          </cc:Agent>
        </dc:rights>
        <dc:date />
        <dc:format>image/svg+xml</dc:format>
        <dc:type
           rdf:resource="http://purl.org/dc/dcmitype/StillImage" />
        <cc:license
           rdf:resource="http://web.resource.org/cc/PublicDomain" />
        <dc:language>en</dc:language>
      </cc:Work>
      <cc:License
         rdf:about="http://web.resource.org/cc/PublicDomain">
        <cc:permits
           rdf:resource="http://web.resource.org/cc/Reproduction" />
        <cc:permits
           rdf:resource="http://web.resource.org/cc/Distribution" />
        <cc:permits
           rdf:resource="http://web.resource.org/cc/DerivativeWorks" />
      </cc:License>
    </rdf:RDF>
  </metadata>
  <defs
     id="defs48974" />
  <sodipodi:namedview
     bordercolor="#666666"
     borderopacity="1.0"
     id="base"
     inkscape:cx="26.847003"
     inkscape:cy="35.074537"
     inkscape:pageopacity="0.0"
     inkscape:pageshadow="2"
     inkscape:window-height="1042"
     inkscape:window-width="1171"
     inkscape:window-x="0"
     inkscape:window-y="0"
     inkscape:zoom="4.9119411"
     pagecolor="#ffffff"
     showgrid="false"
     inkscape:window-maximized="0"
     inkscape:current-layer="svg18453" />
  <path
     d="m 43.483902,40.528144 c 4.731934,6.523693 5.754284,11.291645 7.35693,10.835349 1.25272,-0.356662 0.650672,-1.428814 3.961305,-2.18526 3.178761,-0.72632 6.426472,1.883397 7.101197,5.032025 0.898725,3.086105 -0.557976,6.965057 -3.816906,7.922631 C 54.861366,63.300084 51.017257,61.402891 49.86976,58.19081 48.207059,54.518748 47.354422,49.669007 41.98071,45.506452 L 37.856074,42.31149 23.582157,22.159559 c -1.596016,-2.605424 -2.554289,-6.07153 -0.485005,-9.371184 l 20.38675,27.739769 z m 15.313277,12.163347 c -2.74907,-2.74249 -7.612249,-1.069951 -7.603933,2.590954 -0.194674,3.368117 3.89908,6.435606 6.942078,4.513044 2.562157,-1.348026 2.543778,-5.22657 0.661855,-7.103998 z"
     id="path48999"
     sodipodi:nodetypes="cccccczcccccccc"
     style="stroke:#000000;stroke-width:0.88947678;stroke-miterlimit:4;stroke-opacity:1;marker-start:none"
     inkscape:connector-curvature="0" />
  <path
     d="m 36.19263,40.350279 c -4.717472,6.53423 -5.729123,11.304442 -7.332771,10.851719 -1.253499,-0.353874 -0.653846,-1.427334 -3.966224,-2.176427 -3.180343,-0.719238 -6.422227,1.897714 -7.089968,5.047849 -0.891789,3.088066 0.573548,6.963793 3.834589,7.914087 3.227681,1.16001 7.067543,-0.745734 8.207833,-3.96038 1.654537,-3.675731 2.496345,-8.527389 7.860809,-12.70188 l 4.117523,-3.204188 14.228938,-20.18368 c 1.590212,-2.608981 2.540782,-6.077208 0.464161,-9.37224 l -20.32489,27.78514 z m -15.286122,12.19745 c 2.742947,-2.748606 7.609831,-1.086911 7.609642,2.573995 0.202236,3.367676 -3.884712,6.44428 -6.931957,4.52852 -2.565153,-1.342321 -2.555445,-5.220898 -0.677685,-7.102515 z"
     id="path49000"
     sodipodi:nodetypes="cccccczcccccccc"
     style="stroke:#000000;stroke-width:0.88947678;stroke-miterlimit:4;stroke-opacity:1;marker-start:none"
     inkscape:connector-curvature="0" />
</svg>
