<?xml version="1.0" encoding="UTF-8" standalone="no"?>
<svg
   xmlns:osb="http://www.openswatchbook.org/uri/2009/osb"
   xmlns:dc="http://purl.org/dc/elements/1.1/"
   xmlns:cc="http://creativecommons.org/ns#"
   xmlns:rdf="http://www.w3.org/1999/02/22-rdf-syntax-ns#"
   xmlns:svg="http://www.w3.org/2000/svg"
   xmlns="http://www.w3.org/2000/svg"
   xmlns:sodipodi="http://sodipodi.sourceforge.net/DTD/sodipodi-0.dtd"
   xmlns:inkscape="http://www.inkscape.org/namespaces/inkscape"
   version="1.1"
   width="76"
   height="76"
   viewBox="0 0 76.00 76.00"
   enable-background="new 0 0 76.00 76.00"
   xml:space="preserve"
   id="svg2"
   inkscape:version="0.48.2 r9819"
   sodipodi:docname="appbar.saveall.svg"><metadata
   id="metadata10"><rdf:RDF><cc:Work
       rdf:about=""><dc:format>image/svg+xml</dc:format><dc:type
         rdf:resource="http://purl.org/dc/dcmitype/StillImage" /></cc:Work></rdf:RDF></metadata><defs
   id="defs8"><linearGradient
     id="linearGradient3778"
     osb:paint="solid"><stop
       style="stop-color:#ffffff;stop-opacity:1;"
       offset="0"
       id="stop3780" /></linearGradient></defs><sodipodi:namedview
   pagecolor="#ffffff"
   bordercolor="#666666"
   borderopacity="1"
   objecttolerance="10"
   gridtolerance="10"
   guidetolerance="10"
   inkscape:pageopacity="0"
   inkscape:pageshadow="2"
   inkscape:window-width="1248"
   inkscape:window-height="866"
   id="namedview6"
   showgrid="false"
   inkscape:zoom="4.3915053"
   inkscape:cx="77.860486"
   inkscape:cy="36.130171"
   inkscape:window-x="0"
   inkscape:window-y="0"
   inkscape:window-maximized="0"
   inkscape:current-layer="layer2" />
	<path
   d="m 14.990328,14.762616 30.25,0 5.75,5.75 0,30.25 -36,0 0,-36 z m 32,7.25 -3.25,-3.25 -0.75,0 0,13 -20,0 0,-13 -4,0 0,28 28,0 0,-24.75 z m -13,-3.25 0,10 5,0 0,-10 -5,0 z"
   id="path4"
   inkscape:connector-curvature="0"
   style="fill:#000000;fill-opacity:1;stroke-width:0.2;stroke-linejoin:round" />
<g
   inkscape:groupmode="layer"
   id="layer1"
   inkscape:label="Layer"><rect
     style="fill:#ffffff;fill-opacity:1;fill-rule:nonzero;stroke:#feffff;stroke-opacity:1"
     id="rect3776"
     width="35.97855"
     height="36.8894"
     x="23.454374"
     y="23.170734" /></g><g
   inkscape:groupmode="layer"
   id="layer2"
   inkscape:label="Layer#1"><path
     style="fill:#000000;fill-opacity:1;stroke-width:0.2;stroke-linejoin:round"
     inkscape:connector-curvature="0"
     d="m 22.988218,22.476872 30.25001,0 5.75,5.750001 0,30.25 -36.00001,0 0,-36.000001 z m 32.00001,7.250001 -3.25,-3.25 -0.75,0 0,13 -20,0 0,-13 -4.00001,0 0,28 28.00001,0 0,-24.75 z m -13,-3.25 0,10 5,0 0,-10 -5,0 z"
     id="path4-1" /></g></svg>